<?xml version="1.0" encoding="UTF-8" ?>
<!DOCTYPE svg PUBLIC "-//W3C//DTD SVG 1.1//EN" "http://www.w3.org/Graphics/SVG/1.1/DTD/svg11.dtd">
<svg width="30pt" height="30pt" viewBox="0 0 30 30" version="1.1" xmlns="http://www.w3.org/2000/svg">
<g id="#792c9bff">
<path fill="#792c9b" opacity="1.00" d=" M 13.73 0.00 L 16.10 0.00 C 21.50 0.71 24.80 6.11 23.97 11.31 C 27.56 13.64 29.56 17.50 30.00 21.71 L 30.00 24.39 C 29.86 26.85 28.63 29.09 26.24 30.00 L 3.86 30.00 C 1.35 29.19 0.34 26.74 0.00 24.35 L 0.00 21.70 C 0.45 17.49 2.44 13.61 6.05 11.30 C 5.19 6.15 8.44 0.86 13.73 0.00 M 12.44 3.58 C 8.45 5.26 7.81 11.28 11.36 13.76 C 14.67 16.55 20.37 14.32 20.90 10.02 C 21.95 5.47 16.55 1.38 12.44 3.58 M 7.29 14.05 C 3.30 16.86 1.99 22.61 3.92 27.01 C 11.34 26.97 18.75 27.02 26.17 26.98 C 27.94 22.58 26.73 16.83 22.69 14.08 C 20.85 15.93 18.72 17.76 15.99 17.92 C 12.56 18.48 9.50 16.45 7.29 14.05 Z" />
</g>
</svg>
